<svg width="84" height="86" viewBox="0 0 84 86" fill="none" xmlns="http://www.w3.org/2000/svg">
<path d="M22.6938 24.6022C15.4197 29.3475 10.6119 37.5582 10.6119 46.8772C10.6119 47.4392 10.6275 48.0167 10.6587 48.5631C11.0021 57.6167 14.8421 65.7962 20.8831 71.7591C27.1426 77.9561 35.7591 81.7649 45.2498 81.7024C49.8078 81.6712 54.1629 80.7659 58.1278 79.1112C52.1025 83.0293 44.9064 85.3083 37.1952 85.3083C22.9279 85.3083 10.4558 77.519 3.82166 65.9523C3.41581 65.0001 3.05679 64.0323 2.7602 63.0489C1.85484 60.0986 1.37094 56.9611 1.38655 53.7143C1.43338 45.207 4.92995 37.527 10.5338 31.9856C13.9211 28.6451 18.0733 26.0851 22.6938 24.6022Z" fill="white"/>
<path d="M32.8713 67.8098C40.6137 71.7435 50.12 71.8371 58.2058 67.1854C58.7054 66.9045 59.1736 66.6079 59.6419 66.2957C67.3219 61.4879 72.5043 54.0889 74.6741 45.8782C76.9219 37.3709 75.9385 28.0051 71.1775 19.7944C68.8829 15.8451 65.917 12.5359 62.5141 9.91345C68.9141 13.1915 74.4711 18.2802 78.3111 24.9768C85.4135 37.3553 84.8672 52.044 78.1394 63.564C77.515 64.3913 76.8594 65.1718 76.1414 65.9367C74.0341 68.2001 71.5677 70.1825 68.7268 71.7747C61.3278 75.9581 52.9298 76.7542 45.3278 74.6625C40.7542 73.3981 36.4615 71.0879 32.8713 67.8098Z" fill="white"/>
<path d="M65.0117 37.1524C64.5746 28.4734 59.9229 20.1846 51.8683 15.4861C51.3844 15.2051 50.8849 14.9242 50.3854 14.6744C42.3932 10.3974 33.402 9.60126 25.2069 11.8022C16.6997 14.0812 9.06652 19.5915 4.32117 27.8178C2.04215 31.767 0.637279 35.9816 0.0441109 40.2431C-0.299302 33.0626 1.35533 25.7105 5.25775 19.0451C12.4538 6.71346 25.4879 -0.107975 38.8186 0.00129272C39.8332 0.12617 40.8635 0.313487 41.8625 0.547632C44.8752 1.25007 47.8254 2.40519 50.6195 4.07542C57.9405 8.41492 62.8107 15.2988 64.7619 22.9475C65.9326 27.5368 66.0575 32.407 65.0117 37.1524Z" fill="white"/>
</svg>
